<svg width="1200" height="800" viewBox="0 0 1200 800" xmlns="http://www.w3.org/2000/svg" preserveAspectRatio="xMidYMid slice">
  <defs>
    <linearGradient id="bgGrad" x1="0" y1="0" x2="1" y2="1">
      <stop offset="0%" stop-color="#101A35" />
      <stop offset="100%" stop-color="#1A1E3C" />
    </linearGradient>
    <linearGradient id="shapeGrad" x1="0" y1="0" x2="1" y2="1">
      <stop offset="0%" stop-color="#E8620A" stop-opacity="0.95" />
      <stop offset="100%" stop-color="#FFB25A" stop-opacity="0.65" />
    </linearGradient>
  </defs>
  <rect width="1200" height="800" fill="url(#bgGrad)" />
  <circle cx="920" cy="160" r="140" fill="rgba(232,98,10,0.18)" />
  <circle cx="280" cy="520" r="220" fill="rgba(255,255,255,0.08)" />
  <rect x="100" y="180" width="180" height="360" rx="24" fill="#141D3B" />
  <rect x="140" y="220" width="100" height="42" rx="10" fill="#223065" />
  <rect x="420" y="160" width="80" height="440" rx="18" fill="#1E2544" />
  <rect x="540" y="240" width="120" height="96" rx="14" fill="#2A3358" />
  <rect x="700" y="270" width="220" height="340" rx="20" fill="#1B2242" />
  <path d="M 810 280 Q 840 190 930 210 L 940 600 Q 850 630 820 520 Z" fill="url(#shapeGrad)" opacity="0.55" />
  <line x1="120" y1="620" x2="420" y2="620" stroke="#E8620A" stroke-width="10" stroke-linecap="round" opacity="0.35" />
  <line x1="300" y1="640" x2="580" y2="560" stroke="#FFB25A" stroke-width="8" stroke-linecap="round" opacity="0.25" />
  <path d="M 870 430 L 960 430" stroke="#E8620A" stroke-width="12" stroke-linecap="round" opacity="0.5" />
  <circle cx="1000" cy="540" r="22" fill="#E8620A" opacity="0.5" />
  <circle cx="1100" cy="725" r="46" fill="#FFB25A" opacity="0.08" />
</svg>
